<svg width="186" height="34" viewBox="0 0 186 34" fill="none" xmlns="http://www.w3.org/2000/svg">
<path fill-rule="evenodd" clip-rule="evenodd" d="M22.0349 14.8677H0V22.9827C0 29.0837 4.91638 34.0001 11.0174 34.0001C17.1185 34.0001 22.0349 29.0837 22.0349 22.9827V14.8677ZM6.93032 20.1395H15.1045V22.5088H12.2021V27.6621H9.83276V22.5088H6.93032V20.1395Z" fill="url(#paint0_linear_2410_88285)"/>
<path fill-rule="evenodd" clip-rule="evenodd" d="M2.7832 8.35192C2.7832 3.73171 6.51491 0 11.1351 0C15.7553 0 19.487 3.73171 19.487 8.35192V12.7944H15.0445V8.35192C15.0445 6.21952 13.3268 4.44251 11.1351 4.44251C8.94349 4.44251 7.22571 6.16028 7.22571 8.35192V12.7944H2.7832V8.35192Z" fill="url(#paint1_linear_2410_88285)"/>
<path d="M30.0352 2.04656V1.13422H35.7071V2.04656H33.4204V8.15861H32.3182V2.04656H30.0352Z" fill="url(#paint2_linear_2410_88285)"/>
<path d="M38.292 8.26493C37.7767 8.26493 37.327 8.15175 36.9429 7.92538C36.5588 7.699 36.2606 7.38231 36.0482 6.9753C35.8359 6.56829 35.7298 6.09268 35.7298 5.54847C35.7298 5.00198 35.8359 4.52408 36.0482 4.11478C36.2606 3.70548 36.5588 3.38765 36.9429 3.16127C37.327 2.9349 37.7767 2.82172 38.292 2.82172C38.8073 2.82172 39.257 2.9349 39.6411 3.16127C40.0251 3.38765 40.3234 3.70548 40.5357 4.11478C40.748 4.52408 40.8542 5.00198 40.8542 5.54847C40.8542 6.09268 40.748 6.56829 40.5357 6.9753C40.3234 7.38231 40.0251 7.699 39.6411 7.92538C39.257 8.15175 38.8073 8.26493 38.292 8.26493ZM38.2955 7.40403C38.6295 7.40403 38.9063 7.31943 39.1258 7.15022C39.3452 6.98102 39.5075 6.75579 39.6124 6.47454C39.7198 6.19329 39.7735 5.88345 39.7735 5.54504C39.7735 5.20891 39.7198 4.90022 39.6124 4.61897C39.5075 4.33544 39.3452 4.10792 39.1258 3.93643C38.9063 3.76493 38.6295 3.67919 38.2955 3.67919C37.9592 3.67919 37.68 3.76493 37.4582 3.93643C37.2387 4.10792 37.0753 4.33544 36.9679 4.61897C36.863 4.90022 36.8105 5.20891 36.8105 5.54504C36.8105 5.88345 36.863 6.19329 36.9679 6.47454C37.0753 6.75579 37.2387 6.98102 37.4582 7.15022C37.68 7.31943 37.9592 7.40403 38.2955 7.40403Z" fill="url(#paint3_linear_2410_88285)"/>
<path d="M42.9318 6.37164L42.9246 5.11974H43.1107L45.3008 2.89031H46.5819L44.0841 5.42842H43.9159L42.9318 6.37164ZM41.9477 8.15861V1.13422H43.0177V8.15861H41.9477ZM45.4189 8.15861L43.4507 5.6548L44.1879 4.93795L46.7322 8.15861H45.4189Z" fill="url(#paint4_linear_2410_88285)"/>
<path d="M49.5989 8.26493C49.0573 8.26493 48.5909 8.15403 48.1997 7.93223C47.8108 7.70815 47.5102 7.39374 47.2979 6.98902C47.088 6.58201 46.983 6.10525 46.983 5.55876C46.983 5.01913 47.088 4.54352 47.2979 4.13193C47.5102 3.72034 47.806 3.39908 48.1854 3.16813C48.5671 2.93719 49.0132 2.82172 49.5237 2.82172C49.8339 2.82172 50.1344 2.87088 50.4255 2.9692C50.7165 3.06752 50.9778 3.22187 51.2092 3.43223C51.4406 3.6426 51.6231 3.91585 51.7567 4.25198C51.8903 4.58582 51.9571 4.99169 51.9571 5.46958V5.83315H47.5877V5.06486H50.9086C50.9086 4.79504 50.8513 4.55609 50.7368 4.34801C50.6223 4.13765 50.4613 3.97187 50.2537 3.85068C50.0486 3.72949 49.8076 3.6689 49.5309 3.6689C49.2303 3.6689 48.9679 3.73978 48.7436 3.88155C48.5217 4.02103 48.35 4.20396 48.2283 4.43033C48.109 4.65441 48.0494 4.89794 48.0494 5.16089V5.76112C48.0494 6.11326 48.1138 6.4128 48.2426 6.65975C48.3738 6.9067 48.5563 7.09534 48.7901 7.22568C49.0239 7.35373 49.2971 7.41775 49.6096 7.41775C49.8124 7.41775 49.9973 7.39031 50.1643 7.33544C50.3313 7.27827 50.4756 7.19367 50.5973 7.08163C50.7189 6.96958 50.812 6.83124 50.8764 6.66661L51.8891 6.84153C51.808 7.12736 51.6625 7.37774 51.4525 7.59268C51.245 7.80533 50.9837 7.97111 50.6688 8.09001C50.3563 8.20663 49.9997 8.26493 49.5989 8.26493Z" fill="url(#paint5_linear_2410_88285)"/>
<path d="M54.1135 5.03056V8.15861H53.0435V2.89031H54.0705V3.74778H54.1385C54.2649 3.46882 54.463 3.24473 54.7325 3.07553C55.0045 2.90632 55.3468 2.82172 55.7596 2.82172C56.1341 2.82172 56.4621 2.89717 56.7437 3.04809C57.0252 3.19672 57.2435 3.41852 57.3985 3.71348C57.5536 4.00845 57.6311 4.37316 57.6311 4.80762V8.15861H56.5611V4.93109C56.5611 4.54923 56.4574 4.25083 56.2498 4.03589C56.0423 3.81867 55.7572 3.71005 55.3946 3.71005C55.1465 3.71005 54.9258 3.7615 54.7325 3.8644C54.5417 3.9673 54.3902 4.11821 54.2781 4.31714C54.1683 4.51379 54.1135 4.75159 54.1135 5.03056Z" fill="url(#paint6_linear_2410_88285)"/>
<path d="M65.6503 4.17652L64.6805 4.34115C64.64 4.22225 64.5755 4.10906 64.4873 4.00159C64.4014 3.89412 64.2845 3.80609 64.1366 3.73749C63.9887 3.6689 63.8038 3.6346 63.5819 3.6346C63.2789 3.6346 63.0261 3.69977 62.8233 3.8301C62.6205 3.95815 62.5191 4.12393 62.5191 4.32743C62.5191 4.5035 62.5871 4.64527 62.7231 4.75274C62.8591 4.86021 63.0785 4.94824 63.3815 5.01684L64.2547 5.20891C64.7604 5.32095 65.1374 5.49359 65.3855 5.72682C65.6336 5.96005 65.7576 6.26303 65.7576 6.63574C65.7576 6.95129 65.6622 7.23254 65.4714 7.47949C65.2829 7.72416 65.0193 7.91623 64.6805 8.05571C64.3441 8.19519 63.9541 8.26493 63.5103 8.26493C62.8948 8.26493 62.3927 8.13917 62.0038 7.88765C61.6149 7.63384 61.3764 7.2737 61.2881 6.80724L62.3223 6.65632C62.3867 6.9147 62.5191 7.11021 62.7195 7.24283C62.9199 7.37316 63.1811 7.43833 63.5032 7.43833C63.8539 7.43833 64.1342 7.36859 64.3441 7.22911C64.5541 7.08734 64.659 6.9147 64.659 6.7112C64.659 6.54656 64.5946 6.40823 64.4658 6.29618C64.3394 6.18414 64.1449 6.09954 63.8825 6.04237L62.9521 5.84687C62.4392 5.73483 62.0599 5.55647 61.8141 5.31181C61.5708 5.06714 61.4491 4.75731 61.4491 4.38231C61.4491 4.07134 61.5398 3.79923 61.7211 3.566C61.9024 3.33277 62.1529 3.15098 62.4726 3.02065C62.7923 2.88803 63.1585 2.82172 63.5712 2.82172C64.1652 2.82172 64.6328 2.94519 64.9739 3.19214C65.3151 3.43681 65.5405 3.76493 65.6503 4.17652Z" fill="url(#paint7_linear_2410_88285)"/>
<path d="M69.2023 8.26493C68.6607 8.26493 68.1943 8.15403 67.8031 7.93223C67.4142 7.70815 67.1136 7.39374 66.9013 6.98902C66.6913 6.58201 66.5864 6.10525 66.5864 5.55876C66.5864 5.01913 66.6913 4.54352 66.9013 4.13193C67.1136 3.72034 67.4094 3.39908 67.7888 3.16813C68.1705 2.93719 68.6166 2.82172 69.1271 2.82172C69.4373 2.82172 69.7378 2.87088 70.0289 2.9692C70.3199 3.06752 70.5812 3.22187 70.8126 3.43223C71.044 3.6426 71.2265 3.91585 71.3601 4.25198C71.4937 4.58582 71.5605 4.99169 71.5605 5.46958V5.83315H67.1911V5.06486H70.512C70.512 4.79504 70.4547 4.55609 70.3402 4.34801C70.2257 4.13765 70.0647 3.97187 69.8571 3.85068C69.652 3.72949 69.411 3.6689 69.1343 3.6689C68.8337 3.6689 68.5713 3.73978 68.347 3.88155C68.1251 4.02103 67.9534 4.20396 67.8317 4.43033C67.7124 4.65441 67.6528 4.89794 67.6528 5.16089V5.76112C67.6528 6.11326 67.7172 6.4128 67.846 6.65975C67.9772 6.9067 68.1597 7.09534 68.3935 7.22568C68.6273 7.35373 68.9005 7.41775 69.213 7.41775C69.4158 7.41775 69.6007 7.39031 69.7677 7.33544C69.9347 7.27827 70.079 7.19367 70.2007 7.08163C70.3223 6.96958 70.4154 6.83124 70.4798 6.66661L71.4925 6.84153C71.4114 7.12736 71.2659 7.37774 71.0559 7.59268C70.8484 7.80533 70.5871 7.97111 70.2722 8.09001C69.9597 8.20663 69.6031 8.26493 69.2023 8.26493Z" fill="url(#paint8_linear_2410_88285)"/>
<path d="M74.9622 8.26493C74.4302 8.26493 73.9721 8.14946 73.588 7.91852C73.2063 7.68528 72.9129 7.36402 72.7077 6.95472C72.5026 6.54542 72.4 6.07667 72.4 5.54847C72.4 5.01341 72.5049 4.54123 72.7149 4.13193C72.9248 3.72034 73.2206 3.39908 73.6023 3.16813C73.9841 2.93719 74.4338 2.82172 74.9514 2.82172C75.3689 2.82172 75.7411 2.89603 76.0679 3.04466C76.3948 3.191 76.6584 3.39679 76.8588 3.66204C77.0616 3.92728 77.182 4.23711 77.2202 4.59153H76.1789C76.1216 4.34458 75.9904 4.13193 75.7852 3.95358C75.5824 3.77522 75.3105 3.68605 74.9693 3.68605C74.6711 3.68605 74.4099 3.7615 74.1856 3.91242C73.9638 4.06105 73.7908 4.2737 73.6668 4.55037C73.5427 4.82477 73.4807 5.14946 73.4807 5.52446C73.4807 5.90861 73.5415 6.24016 73.6632 6.51912C73.7849 6.79809 73.9566 7.01417 74.1785 7.16737C74.4027 7.32057 74.6664 7.39717 74.9693 7.39717C75.1721 7.39717 75.3558 7.36173 75.5204 7.29085C75.6874 7.21768 75.827 7.11364 75.9391 6.97873C76.0536 6.84382 76.1335 6.68147 76.1789 6.49169H77.2202C77.182 6.83239 77.0663 7.1365 76.8731 7.40403C76.6799 7.67156 76.421 7.88193 76.0966 8.03513C75.7745 8.18833 75.3964 8.26493 74.9622 8.26493Z" fill="url(#paint9_linear_2410_88285)"/>
<path d="M81.7455 5.97377V2.89031H82.8191V8.15861H81.767V7.24626H81.7097C81.5833 7.52751 81.3805 7.76188 81.1014 7.94938C80.8247 8.1346 80.4799 8.2272 80.0672 8.2272C79.7141 8.2272 79.4016 8.15289 79.1297 8.00426C78.8601 7.85335 78.6477 7.63041 78.4927 7.33544C78.34 7.04047 78.2637 6.67576 78.2637 6.24131V2.89031H79.3336V6.11783C79.3336 6.47682 79.4374 6.76265 79.645 6.9753C79.8525 7.18795 80.1221 7.29428 80.4537 7.29428C80.6541 7.29428 80.8533 7.24626 81.0513 7.15022C81.2517 7.05419 81.4175 6.90899 81.5487 6.71463C81.6823 6.52027 81.7479 6.27332 81.7455 5.97377Z" fill="url(#paint10_linear_2410_88285)"/>
<path d="M84.156 8.15861V2.89031H85.1902V3.7272H85.2474C85.3476 3.44367 85.5242 3.22073 85.777 3.05838C86.0323 2.89374 86.321 2.81143 86.643 2.81143C86.7098 2.81143 86.7886 2.81371 86.8792 2.81829C86.9722 2.82286 87.045 2.82858 87.0975 2.83544V3.81638C87.0546 3.80495 86.9782 3.79237 86.8685 3.77865C86.7587 3.76265 86.649 3.75464 86.5392 3.75464C86.2864 3.75464 86.0609 3.80609 85.8629 3.90899C85.6673 4.0096 85.5122 4.15022 85.3977 4.33086C85.2832 4.50922 85.2259 4.71272 85.2259 4.94138V8.15861H84.156Z" fill="url(#paint11_linear_2410_88285)"/>
<path d="M90.0948 8.26493C89.5533 8.26493 89.0869 8.15403 88.6956 7.93223C88.3068 7.70815 88.0062 7.39374 87.7938 6.98902C87.5839 6.58201 87.4789 6.10525 87.4789 5.55876C87.4789 5.01913 87.5839 4.54352 87.7938 4.13193C88.0062 3.72034 88.302 3.39908 88.6813 3.16813C89.063 2.93719 89.5091 2.82172 90.0197 2.82172C90.3298 2.82172 90.6304 2.87088 90.9214 2.9692C91.2125 3.06752 91.4737 3.22187 91.7051 3.43223C91.9365 3.6426 92.119 3.91585 92.2526 4.25198C92.3862 4.58582 92.453 4.99169 92.453 5.46958V5.83315H88.0837V5.06486H91.4045C91.4045 4.79504 91.3473 4.55609 91.2328 4.34801C91.1183 4.13765 90.9572 3.97187 90.7497 3.85068C90.5445 3.72949 90.3036 3.6689 90.0268 3.6689C89.7262 3.6689 89.4638 3.73978 89.2395 3.88155C89.0177 4.02103 88.8459 4.20396 88.7242 4.43033C88.605 4.65441 88.5453 4.89794 88.5453 5.16089V5.76112C88.5453 6.11326 88.6097 6.4128 88.7386 6.65975C88.8698 6.9067 89.0523 7.09534 89.2861 7.22568C89.5199 7.35373 89.793 7.41775 90.1055 7.41775C90.3083 7.41775 90.4932 7.39031 90.6602 7.33544C90.8272 7.27827 90.9715 7.19367 91.0932 7.08163C91.2149 6.96958 91.3079 6.83124 91.3723 6.66661L92.385 6.84153C92.3039 7.12736 92.1584 7.37774 91.9485 7.59268C91.7409 7.80533 91.4797 7.97111 91.1648 8.09001C90.8523 8.20663 90.4956 8.26493 90.0948 8.26493Z" fill="url(#paint12_linear_2410_88285)"/>
<path d="M95.5971 8.2615C95.1533 8.2615 94.7573 8.15289 94.409 7.93567C94.0631 7.71615 93.7911 7.40403 93.5931 6.99931C93.3975 6.5923 93.2997 6.10411 93.2997 5.53475C93.2997 4.96539 93.3987 4.47835 93.5967 4.07362C93.7971 3.6689 94.0714 3.35906 94.4197 3.14413C94.7681 2.92919 95.1629 2.82172 95.6042 2.82172C95.9454 2.82172 96.2197 2.87659 96.4273 2.98635C96.6372 3.09382 96.7994 3.21958 96.914 3.36364C97.0309 3.50769 97.1215 3.6346 97.1859 3.74435H97.2503V1.13422H98.3203V8.15861H97.2754V7.33887H97.1859C97.1215 7.45091 97.0285 7.57896 96.9068 7.72301C96.7875 7.86707 96.6229 7.99283 96.413 8.1003C96.203 8.20777 95.9311 8.2615 95.5971 8.2615ZM95.8333 7.38688C96.141 7.38688 96.401 7.30914 96.6134 7.15365C96.8281 6.99588 96.9903 6.77751 97.1 6.49855C97.2122 6.21958 97.2682 5.89489 97.2682 5.52446C97.2682 5.15861 97.2134 4.83849 97.1036 4.56409C96.9939 4.2897 96.8328 4.07591 96.6205 3.92271C96.4082 3.76951 96.1458 3.69291 95.8333 3.69291C95.5112 3.69291 95.2428 3.77294 95.0281 3.933C94.8134 4.09306 94.6512 4.31143 94.5414 4.5881C94.4341 4.86478 94.3804 5.1769 94.3804 5.52446C94.3804 5.87659 94.4352 6.19329 94.545 6.47454C94.6547 6.75579 94.817 6.97873 95.0317 7.14336C95.2488 7.30571 95.516 7.38688 95.8333 7.38688Z" fill="url(#paint13_linear_2410_88285)"/>
<path d="M102.399 8.15861V1.13422H103.469V3.74435H103.533C103.595 3.6346 103.685 3.50769 103.801 3.36364C103.918 3.21958 104.081 3.09382 104.288 2.98635C104.496 2.87659 104.77 2.82172 105.111 2.82172C105.555 2.82172 105.951 2.92919 106.299 3.14413C106.648 3.35906 106.921 3.6689 107.119 4.07362C107.319 4.47835 107.419 4.96539 107.419 5.53475C107.419 6.10411 107.32 6.5923 107.122 6.99931C106.924 7.40403 106.652 7.71615 106.306 7.93567C105.96 8.15289 105.566 8.2615 105.122 8.2615C104.788 8.2615 104.515 8.20777 104.302 8.1003C104.092 7.99283 103.928 7.86707 103.809 7.72301C103.689 7.57896 103.597 7.45091 103.533 7.33887H103.444V8.15861H102.399ZM103.447 5.52446C103.447 5.89489 103.503 6.21958 103.615 6.49855C103.727 6.77751 103.89 6.99588 104.102 7.15365C104.314 7.30914 104.574 7.38688 104.882 7.38688C105.202 7.38688 105.469 7.30571 105.684 7.14336C105.898 6.97873 106.061 6.75579 106.17 6.47454C106.283 6.19329 106.339 5.87659 106.339 5.52446C106.339 5.1769 106.284 4.86478 106.174 4.5881C106.067 4.31143 105.904 4.09306 105.687 3.933C105.473 3.77294 105.204 3.69291 104.882 3.69291C104.572 3.69291 104.31 3.76951 104.095 3.92271C103.883 4.07591 103.721 4.2897 103.612 4.56409C103.502 4.83849 103.447 5.15861 103.447 5.52446Z" fill="url(#paint14_linear_2410_88285)"/>
<path d="M109.009 10.1342C108.85 10.1342 108.704 10.1216 108.573 10.0965C108.442 10.0736 108.344 10.0485 108.279 10.021L108.537 9.18071C108.733 9.23102 108.907 9.25274 109.059 9.24588C109.212 9.23902 109.347 9.18414 109.464 9.08124C109.583 8.97835 109.688 8.81028 109.779 8.57705L109.911 8.2272L107.9 2.89031H109.045L110.437 6.97873H110.494L111.886 2.89031H113.035L110.77 8.86173C110.665 9.13612 110.531 9.36821 110.369 9.558C110.207 9.75007 110.014 9.89412 109.789 9.99016C109.565 10.0862 109.305 10.1342 109.009 10.1342Z" fill="url(#paint15_linear_2410_88285)"/>
<path d="M30.0352 17.6604V14.9857H44.0882V17.6604H38.6441V32.5992H35.4792V17.6604H30.0352Z" fill="url(#paint16_linear_2410_88285)"/>
<path d="M50.1079 32.8573C48.7834 32.8573 47.6395 32.582 46.6763 32.0316C45.7188 31.4755 44.982 30.69 44.466 29.6751C43.95 28.6545 43.692 27.4533 43.692 26.0716C43.692 24.7127 43.95 23.5201 44.466 22.4938C44.9878 21.4617 45.7159 20.659 46.6505 20.0857C47.5851 19.5066 48.6831 19.217 49.9444 19.217C50.7586 19.217 51.5269 19.3489 52.2494 19.6127C52.9775 19.8707 53.6197 20.272 54.1758 20.8167C54.7377 21.3614 55.1792 22.0552 55.5003 22.898C55.8214 23.7351 55.9819 24.7328 55.9819 25.8909V26.8456H45.154V24.7471H52.9976C52.9919 24.1508 52.8628 23.6204 52.6106 23.156C52.3583 22.6859 52.0057 22.3161 51.5527 22.0466C51.1055 21.7771 50.5837 21.6424 49.9874 21.6424C49.351 21.6424 48.792 21.7972 48.3104 22.1068C47.8288 22.4107 47.4532 22.812 47.1837 23.3108C46.92 23.8039 46.7852 24.3457 46.7795 24.9363V26.7682C46.7795 27.5365 46.92 28.1958 47.2009 28.7463C47.4819 29.291 47.8746 29.7095 48.3792 30.0019C48.8837 30.2886 49.4743 30.4319 50.1509 30.4319C50.6038 30.4319 51.0138 30.3689 51.3807 30.2427C51.7477 30.1109 52.0659 29.9188 52.3354 29.6665C52.6048 29.4142 52.8084 29.1018 52.946 28.7291L55.8529 29.0559C55.6694 29.8242 55.3197 30.495 54.8037 31.0684C54.2934 31.636 53.6397 32.0775 52.8428 32.3928C52.0458 32.7024 51.1342 32.8573 50.1079 32.8573Z" fill="url(#paint17_linear_2410_88285)"/>
<path d="M61.9328 32.8659C61.0957 32.8659 60.3417 32.7168 59.6709 32.4186C59.0058 32.1148 58.4783 31.6675 58.0884 31.077C57.7043 30.4864 57.5122 29.7583 57.5122 28.8925C57.5122 28.1471 57.6498 27.5308 57.925 27.0434C58.2002 26.556 58.5758 26.1662 59.0517 25.8737C59.5275 25.5813 60.0636 25.3606 60.6599 25.2115C61.262 25.0567 61.884 24.9449 62.5262 24.8761C63.3002 24.7958 63.9281 24.7242 64.4097 24.6611C64.8913 24.5923 65.2411 24.4891 65.4589 24.3515C65.6826 24.2081 65.7944 23.9874 65.7944 23.6892V23.6376C65.7944 22.9897 65.6023 22.4881 65.2181 22.1326C64.834 21.7771 64.2807 21.5994 63.5583 21.5994C62.7957 21.5994 62.1908 21.7656 61.7436 22.0982C61.3021 22.4307 61.0039 22.8235 60.8491 23.2764L57.9422 22.8636C58.1715 22.0609 58.55 21.3901 59.0775 20.8511C59.6049 20.3064 60.25 19.8993 61.0125 19.6299C61.7751 19.3547 62.618 19.217 63.5411 19.217C64.1775 19.217 64.811 19.2916 65.4417 19.4407C66.0724 19.5897 66.6487 19.8363 67.1704 20.1803C67.6922 20.5186 68.1107 20.9801 68.4261 21.5649C68.7472 22.1498 68.9077 22.8808 68.9077 23.758V32.5992H65.9148V30.7846H65.8116C65.6224 31.1515 65.3557 31.4955 65.0117 31.8166C64.6734 32.132 64.2463 32.3871 63.7303 32.582C63.22 32.7713 62.6208 32.8659 61.9328 32.8659ZM62.7412 30.5782C63.3662 30.5782 63.908 30.4549 64.3667 30.2083C64.8254 29.9561 65.178 29.6235 65.4245 29.2107C65.6768 28.7979 65.803 28.3478 65.803 27.8604V26.3038C65.7055 26.384 65.5392 26.4586 65.3041 26.5274C65.0748 26.5962 64.8168 26.6564 64.5301 26.708C64.2434 26.7596 63.9596 26.8055 63.6787 26.8456C63.3977 26.8857 63.154 26.9201 62.9476 26.9488C62.4832 27.0119 62.0675 27.1151 61.7006 27.2584C61.3336 27.4017 61.0441 27.6024 60.8319 27.8604C60.6198 28.1127 60.5137 28.4395 60.5137 28.8409C60.5137 29.4142 60.723 29.8471 61.1415 30.1395C61.5601 30.4319 62.0933 30.5782 62.7412 30.5782Z" fill="url(#paint18_linear_2410_88285)"/>
<path d="M71.5539 32.5992V19.3891H74.5296V21.6338H74.6844C74.9596 20.8769 75.4154 20.2864 76.0519 19.8621C76.6883 19.4321 77.448 19.217 78.331 19.217C79.2254 19.217 79.9794 19.4349 80.5929 19.8707C81.2121 20.3007 81.6479 20.8884 81.9001 21.6338H82.0377C82.3301 20.8999 82.8232 20.315 83.517 19.8793C84.2165 19.4378 85.045 19.217 86.0025 19.217C87.218 19.217 88.2099 19.6012 88.9782 20.3695C89.7465 21.1378 90.1307 22.2587 90.1307 23.7322V32.5992H87.0088V24.2139C87.0088 23.394 86.7909 22.7948 86.3551 22.4164C85.9194 22.0322 85.3862 21.8402 84.7555 21.8402C84.0044 21.8402 83.4167 22.0752 82.9924 22.5454C82.5738 23.0098 82.3646 23.6147 82.3646 24.3601V32.5992H79.3114V24.0849C79.3114 23.4026 79.105 22.8579 78.6922 22.4508C78.2851 22.0437 77.7519 21.8402 77.0925 21.8402C76.6453 21.8402 76.2382 21.9548 75.8713 22.1842C75.5043 22.4078 75.2119 22.726 74.994 23.1388C74.7761 23.5459 74.6672 24.0218 74.6672 24.5665V32.5992H71.5539Z" fill="url(#paint19_linear_2410_88285)"/>
<path d="M98.4654 32.5992V14.9857H109.749V17.6604H101.656V22.4422H108.975V25.1169H101.656V32.5992H98.4654Z" fill="url(#paint20_linear_2410_88285)"/>
<path d="M112.034 32.5992V19.3891H115.147V32.5992H112.034ZM113.599 17.5142C113.106 17.5142 112.682 17.3508 112.326 17.0239C111.971 16.6914 111.793 16.2929 111.793 15.8285C111.793 15.3583 111.971 14.9599 112.326 14.633C112.682 14.3005 113.106 14.1342 113.599 14.1342C114.098 14.1342 114.522 14.3005 114.872 14.633C115.228 14.9599 115.405 15.3583 115.405 15.8285C115.405 16.2929 115.228 16.6914 114.872 17.0239C114.522 17.3508 114.098 17.5142 113.599 17.5142Z" fill="url(#paint21_linear_2410_88285)"/>
<path d="M120.978 24.8589V32.5992H117.865V19.3891H120.84V21.6338H120.995C121.299 20.8941 121.783 20.3064 122.449 19.8707C123.119 19.4349 123.948 19.217 124.934 19.217C125.846 19.217 126.64 19.412 127.316 19.8019C127.999 20.1918 128.526 20.7565 128.899 21.4961C129.277 22.2358 129.464 23.1331 129.458 24.1881V32.5992H126.345V24.6697C126.345 23.7867 126.115 23.0958 125.656 22.597C125.204 22.0982 124.576 21.8488 123.773 21.8488C123.228 21.8488 122.744 21.9692 122.32 22.21C121.901 22.4451 121.571 22.7862 121.33 23.2334C121.095 23.6806 120.978 24.2225 120.978 24.8589Z" fill="url(#paint22_linear_2410_88285)"/>
<path d="M135.94 32.8659C135.103 32.8659 134.349 32.7168 133.678 32.4186C133.013 32.1148 132.485 31.6675 132.095 31.077C131.711 30.4864 131.519 29.7583 131.519 28.8925C131.519 28.1471 131.657 27.5308 131.932 27.0434C132.207 26.556 132.583 26.1662 133.059 25.8737C133.535 25.5813 134.071 25.3606 134.667 25.2115C135.269 25.0567 135.891 24.9449 136.533 24.8761C137.307 24.7958 137.935 24.7242 138.417 24.6611C138.898 24.5923 139.248 24.4891 139.466 24.3515C139.69 24.2081 139.801 23.9874 139.801 23.6892V23.6376C139.801 22.9897 139.609 22.4881 139.225 22.1326C138.841 21.7771 138.288 21.5994 137.565 21.5994C136.803 21.5994 136.198 21.7656 135.751 22.0982C135.309 22.4307 135.011 22.8235 134.856 23.2764L131.949 22.8636C132.179 22.0609 132.557 21.3901 133.084 20.8511C133.612 20.3064 134.257 19.8993 135.02 19.6299C135.782 19.3547 136.625 19.217 137.548 19.217C138.185 19.217 138.818 19.2916 139.449 19.4407C140.079 19.5897 140.656 19.8363 141.177 20.1803C141.699 20.5186 142.118 20.9801 142.433 21.5649C142.754 22.1498 142.915 22.8808 142.915 23.758V32.5992H139.922V30.7846H139.819C139.629 31.1515 139.363 31.4955 139.019 31.8166C138.68 32.132 138.253 32.3871 137.737 32.582C137.227 32.7713 136.628 32.8659 135.94 32.8659ZM136.748 30.5782C137.373 30.5782 137.915 30.4549 138.374 30.2083C138.832 29.9561 139.185 29.6235 139.432 29.2107C139.684 28.7979 139.81 28.3478 139.81 27.8604V26.3038C139.712 26.384 139.546 26.4586 139.311 26.5274C139.082 26.5962 138.824 26.6564 138.537 26.708C138.25 26.7596 137.967 26.8055 137.686 26.8456C137.405 26.8857 137.161 26.9201 136.955 26.9488C136.49 27.0119 136.075 27.1151 135.708 27.2584C135.341 27.4017 135.051 27.6024 134.839 27.8604C134.627 28.1127 134.521 28.4395 134.521 28.8409C134.521 29.4142 134.73 29.8471 135.149 30.1395C135.567 30.4319 136.1 30.5782 136.748 30.5782Z" fill="url(#paint23_linear_2410_88285)"/>
<path d="M148.674 24.8589V32.5992H145.561V19.3891H148.537V21.6338H148.691C148.995 20.8941 149.48 20.3064 150.145 19.8707C150.816 19.4349 151.644 19.217 152.63 19.217C153.542 19.217 154.336 19.412 155.013 19.8019C155.695 20.1918 156.222 20.7565 156.595 21.4961C156.974 22.2358 157.16 23.1331 157.154 24.1881V32.5992H154.041V24.6697C154.041 23.7867 153.812 23.0958 153.353 22.597C152.9 22.0982 152.272 21.8488 151.469 21.8488C150.925 21.8488 150.44 21.9692 150.016 22.21C149.597 22.4451 149.268 22.7862 149.027 23.2334C148.792 23.6806 148.674 24.2225 148.674 24.8589Z" fill="url(#paint24_linear_2410_88285)"/>
<path d="M165.597 32.8573C164.278 32.8573 163.146 32.5677 162.2 31.9886C161.26 31.4095 160.534 30.6097 160.024 29.5891C159.519 28.5628 159.267 27.3817 159.267 26.0458C159.267 24.7041 159.525 23.5201 160.041 22.4938C160.557 21.4617 161.285 20.659 162.226 20.0857C163.172 19.5066 164.29 19.217 165.58 19.217C166.652 19.217 167.601 19.4149 168.427 19.8105C169.258 20.2004 169.92 20.7536 170.413 21.4703C170.906 22.1813 171.187 23.0127 171.256 23.9645H168.28C168.16 23.328 167.873 22.7977 167.42 22.3734C166.973 21.9434 166.374 21.7284 165.623 21.7284C164.986 21.7284 164.427 21.9004 163.946 22.2444C163.464 22.5827 163.089 23.07 162.819 23.7064C162.555 24.3429 162.423 25.1054 162.423 25.9941C162.423 26.8943 162.555 27.6684 162.819 28.3163C163.083 28.9584 163.453 29.4544 163.929 29.8041C164.41 30.1481 164.975 30.3201 165.623 30.3201C166.082 30.3201 166.491 30.2341 166.853 30.0621C167.22 29.8844 167.526 29.6292 167.773 29.2967C168.019 28.9641 168.189 28.5599 168.28 28.084H171.256C171.182 29.0186 170.906 29.8471 170.43 30.5696C169.955 31.2863 169.307 31.8481 168.487 32.2552C167.667 32.6566 166.704 32.8573 165.597 32.8573Z" fill="url(#paint25_linear_2410_88285)"/>
<path d="M179.176 32.8573C177.852 32.8573 176.708 32.582 175.745 32.0316C174.787 31.4755 174.051 30.69 173.535 29.6751C173.019 28.6545 172.761 27.4533 172.761 26.0716C172.761 24.7127 173.019 23.5201 173.535 22.4938C174.056 21.4617 174.785 20.659 175.719 20.0857C176.654 19.5066 177.752 19.217 179.013 19.217C179.827 19.217 180.596 19.3489 181.318 19.6127C182.046 19.8707 182.688 20.272 183.244 20.8167C183.806 21.3614 184.248 22.0552 184.569 22.898C184.89 23.7351 185.05 24.7328 185.05 25.8909V26.8456H174.223V24.7471H182.066C182.06 24.1508 181.931 23.6204 181.679 23.156C181.427 22.6859 181.074 22.3161 180.621 22.0466C180.174 21.7771 179.652 21.6424 179.056 21.6424C178.42 21.6424 177.861 21.7972 177.379 22.1068C176.897 22.4107 176.522 22.812 176.252 23.3108C175.989 23.8039 175.854 24.3457 175.848 24.9363V26.7682C175.848 27.5365 175.989 28.1958 176.27 28.7463C176.55 29.291 176.943 29.7095 177.448 30.0019C177.952 30.2886 178.543 30.4319 179.219 30.4319C179.672 30.4319 180.082 30.3689 180.449 30.2427C180.816 30.1109 181.134 29.9188 181.404 29.6665C181.673 29.4142 181.877 29.1018 182.015 28.7291L184.921 29.0559C184.738 29.8242 184.388 30.495 183.872 31.0684C183.362 31.636 182.708 32.0775 181.911 32.3928C181.114 32.7024 180.203 32.8573 179.176 32.8573Z" fill="url(#paint26_linear_2410_88285)"/>
<defs>
<linearGradient id="paint0_linear_2410_88285" x1="11.0174" y1="14.8677" x2="11.0174" y2="34.0001" gradientUnits="userSpaceOnUse">
<stop stop-color="#1D65DC"/>
<stop offset="1" stop-color="#0A4BB3"/>
</linearGradient>
<linearGradient id="paint1_linear_2410_88285" x1="11.1351" y1="0" x2="11.1351" y2="12.7944" gradientUnits="userSpaceOnUse">
<stop stop-color="#1D65DC"/>
<stop offset="1" stop-color="#0A4BB3"/>
</linearGradient>
<linearGradient id="paint2_linear_2410_88285" x1="71.5352" y1="1.13422" x2="71.5352" y2="10.1342" gradientUnits="userSpaceOnUse">
<stop stop-color="#1D65DC"/>
<stop offset="1" stop-color="#0A4BB3"/>
</linearGradient>
<linearGradient id="paint3_linear_2410_88285" x1="71.5352" y1="1.13422" x2="71.5352" y2="10.1342" gradientUnits="userSpaceOnUse">
<stop stop-color="#1D65DC"/>
<stop offset="1" stop-color="#0A4BB3"/>
</linearGradient>
<linearGradient id="paint4_linear_2410_88285" x1="71.5352" y1="1.13422" x2="71.5352" y2="10.1342" gradientUnits="userSpaceOnUse">
<stop stop-color="#1D65DC"/>
<stop offset="1" stop-color="#0A4BB3"/>
</linearGradient>
<linearGradient id="paint5_linear_2410_88285" x1="71.5352" y1="1.13422" x2="71.5352" y2="10.1342" gradientUnits="userSpaceOnUse">
<stop stop-color="#1D65DC"/>
<stop offset="1" stop-color="#0A4BB3"/>
</linearGradient>
<linearGradient id="paint6_linear_2410_88285" x1="71.5352" y1="1.13422" x2="71.5352" y2="10.1342" gradientUnits="userSpaceOnUse">
<stop stop-color="#1D65DC"/>
<stop offset="1" stop-color="#0A4BB3"/>
</linearGradient>
<linearGradient id="paint7_linear_2410_88285" x1="71.5352" y1="1.13422" x2="71.5352" y2="10.1342" gradientUnits="userSpaceOnUse">
<stop stop-color="#1D65DC"/>
<stop offset="1" stop-color="#0A4BB3"/>
</linearGradient>
<linearGradient id="paint8_linear_2410_88285" x1="71.5352" y1="1.13422" x2="71.5352" y2="10.1342" gradientUnits="userSpaceOnUse">
<stop stop-color="#1D65DC"/>
<stop offset="1" stop-color="#0A4BB3"/>
</linearGradient>
<linearGradient id="paint9_linear_2410_88285" x1="71.5352" y1="1.13422" x2="71.5352" y2="10.1342" gradientUnits="userSpaceOnUse">
<stop stop-color="#1D65DC"/>
<stop offset="1" stop-color="#0A4BB3"/>
</linearGradient>
<linearGradient id="paint10_linear_2410_88285" x1="71.5352" y1="1.13422" x2="71.5352" y2="10.1342" gradientUnits="userSpaceOnUse">
<stop stop-color="#1D65DC"/>
<stop offset="1" stop-color="#0A4BB3"/>
</linearGradient>
<linearGradient id="paint11_linear_2410_88285" x1="71.5352" y1="1.13422" x2="71.5352" y2="10.1342" gradientUnits="userSpaceOnUse">
<stop stop-color="#1D65DC"/>
<stop offset="1" stop-color="#0A4BB3"/>
</linearGradient>
<linearGradient id="paint12_linear_2410_88285" x1="71.5352" y1="1.13422" x2="71.5352" y2="10.1342" gradientUnits="userSpaceOnUse">
<stop stop-color="#1D65DC"/>
<stop offset="1" stop-color="#0A4BB3"/>
</linearGradient>
<linearGradient id="paint13_linear_2410_88285" x1="71.5352" y1="1.13422" x2="71.5352" y2="10.1342" gradientUnits="userSpaceOnUse">
<stop stop-color="#1D65DC"/>
<stop offset="1" stop-color="#0A4BB3"/>
</linearGradient>
<linearGradient id="paint14_linear_2410_88285" x1="71.5352" y1="1.13422" x2="71.5352" y2="10.1342" gradientUnits="userSpaceOnUse">
<stop stop-color="#1D65DC"/>
<stop offset="1" stop-color="#0A4BB3"/>
</linearGradient>
<linearGradient id="paint15_linear_2410_88285" x1="71.5352" y1="1.13422" x2="71.5352" y2="10.1342" gradientUnits="userSpaceOnUse">
<stop stop-color="#1D65DC"/>
<stop offset="1" stop-color="#0A4BB3"/>
</linearGradient>
<linearGradient id="paint16_linear_2410_88285" x1="107.543" y1="14.1342" x2="107.543" y2="32.8659" gradientUnits="userSpaceOnUse">
<stop stop-color="#1D65DC"/>
<stop offset="1" stop-color="#0A4BB3"/>
</linearGradient>
<linearGradient id="paint17_linear_2410_88285" x1="107.543" y1="14.1342" x2="107.543" y2="32.8659" gradientUnits="userSpaceOnUse">
<stop stop-color="#1D65DC"/>
<stop offset="1" stop-color="#0A4BB3"/>
</linearGradient>
<linearGradient id="paint18_linear_2410_88285" x1="107.543" y1="14.1342" x2="107.543" y2="32.8659" gradientUnits="userSpaceOnUse">
<stop stop-color="#1D65DC"/>
<stop offset="1" stop-color="#0A4BB3"/>
</linearGradient>
<linearGradient id="paint19_linear_2410_88285" x1="107.543" y1="14.1342" x2="107.543" y2="32.8659" gradientUnits="userSpaceOnUse">
<stop stop-color="#1D65DC"/>
<stop offset="1" stop-color="#0A4BB3"/>
</linearGradient>
<linearGradient id="paint20_linear_2410_88285" x1="107.543" y1="14.1342" x2="107.543" y2="32.8659" gradientUnits="userSpaceOnUse">
<stop stop-color="#1D65DC"/>
<stop offset="1" stop-color="#0A4BB3"/>
</linearGradient>
<linearGradient id="paint21_linear_2410_88285" x1="107.543" y1="14.1342" x2="107.543" y2="32.8659" gradientUnits="userSpaceOnUse">
<stop stop-color="#1D65DC"/>
<stop offset="1" stop-color="#0A4BB3"/>
</linearGradient>
<linearGradient id="paint22_linear_2410_88285" x1="107.543" y1="14.1342" x2="107.543" y2="32.8659" gradientUnits="userSpaceOnUse">
<stop stop-color="#1D65DC"/>
<stop offset="1" stop-color="#0A4BB3"/>
</linearGradient>
<linearGradient id="paint23_linear_2410_88285" x1="107.543" y1="14.1342" x2="107.543" y2="32.8659" gradientUnits="userSpaceOnUse">
<stop stop-color="#1D65DC"/>
<stop offset="1" stop-color="#0A4BB3"/>
</linearGradient>
<linearGradient id="paint24_linear_2410_88285" x1="107.543" y1="14.1342" x2="107.543" y2="32.8659" gradientUnits="userSpaceOnUse">
<stop stop-color="#1D65DC"/>
<stop offset="1" stop-color="#0A4BB3"/>
</linearGradient>
<linearGradient id="paint25_linear_2410_88285" x1="107.543" y1="14.1342" x2="107.543" y2="32.8659" gradientUnits="userSpaceOnUse">
<stop stop-color="#1D65DC"/>
<stop offset="1" stop-color="#0A4BB3"/>
</linearGradient>
<linearGradient id="paint26_linear_2410_88285" x1="107.543" y1="14.1342" x2="107.543" y2="32.8659" gradientUnits="userSpaceOnUse">
<stop stop-color="#1D65DC"/>
<stop offset="1" stop-color="#0A4BB3"/>
</linearGradient>
</defs>
</svg>
